<svg width="106" height="81" fill="none" xmlns="http://www.w3.org/2000/svg"><path d="M.053 17.348l17.824 6.415v4.125l-14.259-5.27V71.39l14.298 5.212v4.105L.014 74.313l.04-56.965zm104.901 46.721l-17.803-6.416v-4.125l14.239 5.27V10.025L87.091 4.814V.708l17.923 6.395-.06 56.965z" fill="#fff"/><path d="M10.232 39.158l2.12-.73-.12 4.6 1.03-.356.139-5.586-4.179 1.44-.118 5.587 1.01-.355.118-4.6zm3.526 3.336c.08 0 .297 0 .535-.079.475-.177 1.327-.73 1.426-2.645l.158-2.566 1.386-.473-.119 4.599 1.03-.356.139-5.566-3.387 1.165-.178 3.217c-.08 1.441-.376 1.678-.653 1.777-.08.02-.218.059-.317.059h-.08l-.02.888h.08c-.02-.02 0-.02 0-.02zm6.258-3.592l1.862-.632.436 1.283 1.069-.375-1.822-4.895-1.03.355-2.119 6.258 1.07-.375.534-1.619zm.297-.967l.713-2.191.594 1.737-1.307.454zm3.842.967l1.01-.355.119-4.6 1.584-.532.02-.987-4.179 1.44-.02.988 1.585-.553-.12 4.599zm3.109-2.388c.377.276.95.335 1.565.157l-.02.612 1.03-.355.02-.612c1.069-.414 2.158-1.46 2.198-2.921.02-.612-.159-1.086-.515-1.362-.376-.277-.931-.336-1.565-.178l.02-.533-1.05.395-.02.533c-1.069.434-2.158 1.5-2.197 2.941 0 .612.178 1.066.534 1.322zm.495-1.62c.02-.75.396-1.282 1.149-1.657l-.06 2.467c-.415.08-.693.06-.87-.079-.16-.138-.219-.375-.219-.73zm3.01-1.933c.179.138.258.394.238.75-.02.71-.376 1.223-1.149 1.618l.06-2.467c.396-.06.673-.04.852.099zm2.337 2.269c.258.178.555.277.892.277.237 0 .514-.04.792-.139 1.445-.513 2.455-1.993 2.495-3.73.02-.908-.238-1.599-.733-1.954-.435-.316-1.01-.356-1.663-.138-1.466.513-2.476 2.013-2.515 3.73-.02.888.257 1.599.732 1.954zm.297-2.27c.02-1.204.614-2.17 1.505-2.467.357-.118.674-.099.911.06.317.216.476.71.456 1.38-.02 1.205-.614 2.192-1.485 2.488-.377.118-.674.118-.911-.06-.317-.236-.495-.73-.476-1.4zm5.565-1.243l1.347-.474c1.03-.355 1.663-1.243 1.703-2.31.02-.512-.119-.887-.396-1.105-.317-.217-.792-.236-1.386-.02l-2.198.77-.14 5.567 1.03-.356.04-2.072zm2.06-2.467c-.02.552-.317.947-.911 1.144l-1.11.375.04-1.618 1.09-.375c.356-.119.594-.138.733-.02.099.099.158.257.158.494zm2.554-.85l1.208 3.376.812-.296 1.347-4.185-.1 3.77.971-.335.139-5.586-1.347.473-1.386 4.5-1.228-3.611-1.347.473-.138 5.566.99-.335.08-3.81zm6.12.257l1.861-.632.436 1.283 1.07-.375-1.823-4.895-1.03.355-2.118 6.258 1.07-.376.534-1.618zm.277-.967l.713-2.191.594 1.737-1.307.454zM9.58 51.297c-.219.08-.377.099-.516.06l-.099-.04-.02.967h.218c.139 0 .297-.02.456-.079.633-.217 1.07-.75 1.485-1.756l2.1-5.133-1.13.395-1.247 3.198-1.07-2.388-1.109.375 1.644 3.355c-.237.592-.416.948-.713 1.046zm4.772-.829l.06-2.428 2.119-.75-.06 2.448 1.03-.355.139-5.586-1.03.355-.06 2.151-2.119.75.06-2.15-1.03.335-.119 5.586 1.01-.356zm7.268-6.375L21.52 48l1.01-.355.14-5.586-1.13.395-2.098 4.599.079-3.909-1.01.356-.139 5.586 1.149-.395 2.099-4.6zm6.08.118c.02-.375-.08-.67-.278-.849a.819.819 0 00-.495-.217c.376-.355.614-.848.614-1.302.02-.395-.099-.691-.337-.869-.297-.217-.752-.217-1.326-.02l-2.317.79-.14 5.586 2.635-.908c.95-.336 1.624-1.224 1.643-2.21zm-3.209-.533l.04-1.342 1.168-.395c.278-.098.555-.177.713-.059.08.06.139.198.12.415-.02.493-.298.79-.951 1.006l-1.09.375zm-.06 2.389l.04-1.54 1.248-.434c.277-.099.634-.198.812-.06.1.08.159.237.159.474-.02.553-.337.908-1.05 1.145l-1.208.415zm7.725-6.337l.02-.947-3.723 1.283-.139 5.566 3.763-1.302.04-.968-2.753.948.02-1.421 2.514-.869.04-.927-2.515.868.02-1.283 2.713-.947zm2.93-1.953l-2.198.77-.139 5.566 1.03-.355.04-2.093 1.347-.473c1.03-.356 1.663-1.244 1.703-2.31.02-.513-.12-.888-.396-1.105-.317-.197-.792-.197-1.387 0zm.773 1.44c-.02.553-.317.948-.911 1.146l-1.11.375.04-1.619 1.09-.375c.356-.118.594-.138.732-.02.12.1.159.257.159.494zm3.841-2.21c.318-.118.575-.099.773.02.178.099.277.296.317.553l.02.078 1.01-.355v-.06c-.06-.532-.278-.927-.614-1.144-.376-.237-.911-.256-1.505-.06-1.426.494-2.436 2.014-2.476 3.712-.02.947.218 1.618.713 1.993.238.178.535.257.852.257.237 0 .495-.04.772-.138 1.248-.434 2.139-1.619 2.258-3l.02-.119-1.03.355v.04c-.08.631-.377 1.46-1.248 1.756-.356.119-.634.1-.851-.059-.297-.217-.476-.73-.456-1.401 0-.869.416-2.053 1.446-2.428zm5.902-1.204l-.079 3.888 1.01-.335.139-5.586-1.149.394-2.099 4.6.1-3.909-1.01.356-.14 5.586 1.13-.395 2.099-4.6zm3.941 2.507l.12-4.6 1.584-.552.02-.987-4.18 1.46-.02.968 1.585-.533-.119 4.599 1.01-.356zm5.843-6.593l.02-.967-3.723 1.283-.14 5.586 3.764-1.303.02-.967-2.733.948.02-1.441 2.514-.869.04-.928-2.535.869.04-1.283 2.713-.928zm1.683 3.987l1.01-.356.119-4.599 1.584-.533.02-.986-4.179 1.44-.04.987 1.585-.552-.1 4.599zm3.446-1.737c.237.178.534.257.851.257.238 0 .495-.04.773-.138 1.247-.434 2.138-1.599 2.257-3v-.119l-1.03.355v.04c-.079.632-.376 1.46-1.247 1.757-.357.118-.634.098-.872-.06-.297-.217-.475-.73-.455-1.401.02-.908.416-2.112 1.465-2.467.317-.119.575-.1.773.02.178.098.277.295.316.552l.02.079 1.01-.355v-.06c-.06-.532-.277-.927-.614-1.144-.376-.237-.91-.257-1.505-.06-1.426.494-2.436 2.014-2.475 3.711-.02.987.238 1.678.733 2.033zm5.545-3.197l.653-.928 1.525 1.993 1.228-.414-2.06-2.566 2.14-3-1.328.473-2.139 3.04.06-2.33-1.01.356-.139 5.566 1.01-.335.06-1.856z" fill="#fff"/><path d="M70.16 30.591c.257.178.554.277.89.277.238 0 .516-.04.793-.138 1.446-.514 2.456-1.994 2.495-3.73.02-.909-.237-1.6-.732-1.955-.436-.316-1.01-.355-1.664-.138-1.465.513-2.475 2.013-2.515 3.73-.02.908.237 1.6.733 1.954zm.297-2.27c.02-1.204.614-2.17 1.505-2.487.356-.118.673-.098.91.06.318.217.476.71.456 1.382-.02 1.204-.614 2.19-1.485 2.486-.376.139-.673.119-.911-.059-.317-.197-.495-.71-.475-1.381zm5.603-3.73l2.496-.868.02-.967-3.506 1.204-.138 5.566 1.01-.335.119-4.6zm3.328 2.823c.257.177.554.276.89.276.238 0 .516-.04.793-.138 1.446-.494 2.456-1.994 2.495-3.73.02-.909-.237-1.6-.733-1.955-.435-.316-1.01-.355-1.663-.138-1.466.513-2.475 2.013-2.515 3.73-.02.909.237 1.6.733 1.955zm.297-2.27c.02-1.204.614-2.171 1.505-2.467a1.2 1.2 0 01.435-.08c.179 0 .337.04.476.139.317.217.475.71.455 1.381-.02 1.204-.614 2.191-1.485 2.488-.376.118-.673.118-.911-.06-.337-.237-.495-.73-.475-1.401zM10.213 60.08l1.01-.355.118-4.599 1.585-.533.02-.987-4.14 1.422-.04.02-.019.986 1.584-.552-.118 4.599zm10.476-9.138l-1.188 2.23-1.03-1.48-1.188.415 1.604 2.092-1.882 3.513.02-.947-2.752.947.04-1.44 2.514-.87.02-.927-2.515.869.04-1.283 2.713-.928.02-.967-3.744 1.283-.118 5.586 3.743-1.303v.02l1.208-.434 1.267-2.408 1.149 1.579 1.208-.415-1.723-2.25 1.782-3.296-1.188.414zm5.605 3.573l.138-5.566-1.03.355-.04 2.151-2.138.73.06-2.15-1.03.354-.12 5.567 1.01-.356.06-2.428 2.12-.73-.06 2.428 1.03-.355zm1.406-1.066c.257.178.554.276.89.276.238 0 .516-.04.793-.138 1.465-.493 2.456-1.994 2.495-3.73.02-.908-.237-1.6-.733-1.955-.435-.315-1.01-.355-1.663-.138-1.465.513-2.476 2.014-2.515 3.73-.02.909.238 1.6.733 1.955zm.297-2.27c.02-1.204.614-2.171 1.505-2.467.158-.06.297-.08.436-.08a.79.79 0 01.475.139c.317.217.475.71.455 1.382-.02 1.204-.614 2.19-1.485 2.487-.376.118-.673.098-.911-.06-.337-.236-.495-.73-.475-1.401zm6.08-3.909l1.386-.473-.119 4.599 1.03-.355.139-5.566-3.387 1.164-.178 3.217c-.08 1.461-.376 1.678-.654 1.777-.079.02-.217.06-.317.06h-.079l-.02.887h.1c.079 0 .297 0 .514-.079.476-.157 1.307-.73 1.426-2.645l.159-2.585zm5.386 2.823c1.465-.494 2.456-1.994 2.495-3.73.02-.909-.237-1.6-.732-1.955-.436-.316-1.01-.355-1.664-.138-1.465.494-2.475 2.013-2.515 3.73-.02.909.238 1.6.733 1.955.257.177.554.276.89.276.238.02.516-.04.793-.138zm-1.386-2.388c.02-1.204.614-2.172 1.505-2.468.356-.118.673-.098.91.06.318.217.476.71.456 1.381-.02 1.204-.614 2.191-1.485 2.487-.376.138-.673.119-.91-.059-.318-.237-.496-.73-.476-1.401zm5.605-3.75l2.495-.869.02-.967-3.506 1.204-.138 5.586 1.03-.355.099-4.6zm5.901 2.526l1.03-.355.138-5.586-1.148.395-2.1 4.599.1-3.908-1.03.355-.139 5.586 1.149-.395 2.099-4.599-.1 3.908zm4.852-4.026l-.06 2.348 1.03-.355.139-5.566-1.01.355-.06 2.23a10.55 10.55 0 01-1.109.514c-.336.118-.574.118-.713.02-.178-.139-.178-.454-.178-.691l.04-1.362-1.03.355-.04 1.599c0 .355.06.849.416 1.105.317.217.773.237 1.386.02a16.32 16.32 0 001.189-.572zm5.664-4.205l.02-.947-3.724 1.283-.138 5.586 3.763-1.303.02-.987-2.753.967.04-1.44 2.514-.87.02-.927-2.515.869.04-1.283 2.713-.948zm2.891-2.053c-1.426.494-2.436 2.014-2.475 3.711-.02.947.218 1.638.713 1.994.237.177.535.256.851.256.238 0 .495-.04.773-.138 1.247-.434 2.139-1.599 2.257-3v-.12l-1.03.356v.04c-.079.63-.376 1.46-1.247 1.756-.357.118-.634.099-.871-.06-.298-.216-.476-.73-.456-1.4.02-.909.416-2.093 1.465-2.468.317-.118.575-.099.773.02.178.098.277.296.317.552l.02.08 1.01-.356v-.06c-.06-.532-.278-.927-.614-1.144-.357-.217-.892-.237-1.486-.02zm2.832-.869l-.138 5.567 1.01-.336.04-1.855.672-.928 1.525 2.013 1.228-.434-2.06-2.566 2.14-2.98-1.327.454-2.14 3.04.06-2.33-1.01.355z" fill="#fff"/><path d="M72.674 32.842c-1.465.513-2.475 2.013-2.515 3.73-.02.908.238 1.6.733 1.954.258.178.555.277.891.277.238 0 .515-.04.792-.138 1.446-.514 2.456-1.994 2.496-3.73.02-.909-.238-1.6-.733-1.955-.436-.316-1.01-.375-1.664-.138zm1.367 2.388c-.02 1.204-.614 2.191-1.486 2.487-.376.119-.673.119-.91-.059-.317-.217-.476-.73-.456-1.401.02-1.204.614-2.172 1.505-2.468.357-.118.674-.098.911.06.297.217.456.71.436 1.381zm1.603 2.23l1.01-.354.12-4.6 2.495-.848.02-.987-3.506 1.224-.139 5.566zm8.636-5.724c.019-.908-.239-1.598-.734-1.954-.435-.315-1.01-.355-1.663-.138-1.466.513-2.476 2.014-2.515 3.73-.02.909.237 1.6.733 1.955.257.178.554.276.89.276.238 0 .516-.04.793-.138 1.445-.493 2.436-1.993 2.495-3.73zm-1.03.297c-.02 1.204-.615 2.19-1.486 2.487-.376.118-.673.118-.91-.06-.318-.217-.476-.71-.456-1.401.02-1.204.614-2.171 1.505-2.487a1.2 1.2 0 01.435-.079c.179 0 .337.04.476.138.297.257.455.75.435 1.402zM9.104 68.647l1.01-.355.118-4.6 2.12-.73-.12 4.6 1.03-.356.139-5.586-4.179 1.441-.118 5.586zm8.753-8.053c-.316-.217-.792-.237-1.386-.02l-2.198.77-.139 5.566 1.03-.355.06-2.092 1.346-.474c1.03-.355 1.664-1.243 1.703-2.31 0-.513-.119-.888-.416-1.085zm-.594 1.401c-.02.553-.317.948-.93 1.145l-1.11.395.04-1.618 1.09-.376c.356-.118.593-.138.732-.02.139.08.198.238.178.474zm1.506 3.316l3.762-1.302.04-.987-2.753.947.02-1.44 2.515-.87.04-.927-2.535.888.04-1.283 2.712-.947.02-.948-3.723 1.283-.138 5.586zm8.555-8.487l-3.387 1.165-.02.888c-.04 1.44-.336 3.06-.713 3.928l-.495.178-.06 2.329.991-.336.04-1.342 3.09-1.066-.04 1.342.99-.355.06-2.33-.555.198.099-4.599zm-1.05 1.323l-.08 3.612-1.88.651c.316-.868.574-2.31.593-3.513v-.277l1.367-.473zm1.901 3.908l1.01-.355.12-4.6 2.118-.73-.099 4.6 1.01-.356.139-5.586-4.16 1.441-.138 5.586zm8.793-8.073c-.317-.217-.773-.237-1.387-.02l-2.198.77-.138 5.566 1.03-.355.059-2.093 1.346-.473c1.03-.355 1.664-1.244 1.704-2.31 0-.513-.12-.868-.416-1.085zm-.594 1.42c-.02.554-.317.948-.911 1.146l-1.11.395.04-1.619 1.09-.375c.356-.118.594-.138.732-.02.119.06.178.217.159.474zm2.554 1.264l.08-3.888-1.01.355-.14 5.566 1.15-.394 2.079-4.58-.08 3.889 1.01-.355.14-5.567-1.15.395-2.079 4.58zm7.189-4.204l-2.119.73.04-2.151-1.01.355-.139 5.566 1.01-.355.06-2.428 2.119-.73-.06 2.428 1.03-.356.139-5.566-1.03.355-.04 2.152zm2.852.73l.099-3.889-1.01.356-.14 5.566 1.13-.395 2.099-4.58-.099 3.89 1.03-.356.138-5.566-1.148.394-2.1 4.58zm6.714-2.132l-1.228-3.612-1.347.454-.138 5.586.97-.335.1-3.83 1.207 3.376.812-.277 1.327-4.204-.08 3.77.971-.336.139-5.586-1.347.474-1.386 4.52zm4.99-5.783l-2.119 6.257 1.07-.375.514-1.599L62 48.93l.436 1.283 1.07-.375-1.823-4.895-1.01.335zm1.09 2.882l-1.308.454.713-2.191.594 1.737zm1.069-2.645l1.584-.553-.118 4.6 1.01-.356.118-4.58 1.585-.552.02-.987-4.18 1.44-.019.988zm4.456 3.02l3.762-1.303.04-.967-2.773.947.04-1.44 2.515-.869.04-.928-2.535.869.04-1.283 2.712-.928.02-.967-3.723 1.283-.138 5.586zm5.208-4.303c-.08 1.441-.376 1.678-.653 1.777-.08.02-.218.059-.317.059h-.08l-.02.888h.1c.099 0 .297 0 .515-.079.495-.177 1.307-.73 1.426-2.645l.158-2.566 1.386-.473-.119 4.599 1.03-.356.139-5.566-3.387 1.165-.178 3.197zm7.981-3.375c-.297-.218-.753-.237-1.347-.04l-1.228.415.04-2.073-1.03.355-.139 5.567 2.298-.79c1.109-.375 1.762-1.224 1.782-2.329.06-.513-.099-.888-.376-1.105zm-.614 1.44c-.02.553-.277.928-.832 1.106l-1.188.414.04-1.638 1.227-.414c.238-.08.436-.08.575.02.118.078.198.276.178.513zm5.01-2.131c-.079.631-.376 1.46-1.248 1.756-.356.119-.633.1-.851-.059-.297-.217-.475-.73-.456-1.401.02-.908.416-2.093 1.466-2.468.317-.118.574-.098.772.02.178.099.278.296.337.553l.02.079 1.01-.355v-.06c-.06-.533-.278-.927-.614-1.144-.376-.237-.911-.257-1.505-.06-1.426.494-2.436 2.014-2.476 3.711-.02.948.218 1.638.713 1.994.238.177.535.256.852.256.237 0 .495-.04.772-.138 1.248-.434 2.139-1.618 2.258-3v-.118l-1.03.355-.02.079zm1.129-2.783l1.584-.553-.119 4.6 1.01-.356.12-4.599 1.584-.533.02-.987-4.18 1.441-.019.987zm7.981-1.185c.376-.355.614-.849.614-1.303 0-.395-.1-.69-.337-.868-.297-.217-.753-.217-1.327-.02l-2.317.79-.138 5.566 2.633-.908a2.46 2.46 0 001.664-2.21c0-.376-.08-.672-.277-.85a1.168 1.168 0 00-.515-.197zm-2.436.533l.04-1.342 1.168-.395c.277-.099.555-.178.713-.06.08.06.138.198.119.415-.02.494-.297.79-.95 1.007l-1.09.375zm-.06 2.388l.04-1.54 1.248-.434c.277-.098.633-.197.812-.059.099.08.158.237.158.474-.02.553-.337.908-1.05 1.145l-1.207.414zm6.417-6.828l-1.03.355-2.119 6.257 1.07-.376.515-1.598 1.861-.632.436 1.283 1.07-.375-1.803-4.915zm.06 3.217l-1.308.454.713-2.191.595 1.737z" fill="#fff"/></svg>